<svg width="20" height="20" viewBox="0 0 20 20" fill="none" xmlns="http://www.w3.org/2000/svg">
<g clip-path="url(#clip0_62_7453)">
<path d="M14.1122 0.985909C14.1577 0.985667 14.2032 0.985426 14.2502 0.985177C14.3745 0.984549 14.4989 0.984588 14.6232 0.984789C14.7273 0.984898 14.8313 0.984683 14.9354 0.984471C15.181 0.983978 15.4265 0.984031 15.6721 0.984432C15.925 0.984836 16.1778 0.984341 16.4306 0.983399C16.6482 0.982619 16.8658 0.982387 17.0833 0.982593C17.2131 0.982711 17.3428 0.982628 17.4725 0.982022C17.6173 0.981374 17.762 0.981872 17.9067 0.982475C17.9494 0.982135 17.992 0.981796 18.036 0.981445C18.3228 0.983945 18.5147 1.02203 18.735 1.21751C18.7572 1.24365 18.7794 1.2698 18.8023 1.29674C18.825 1.3228 18.8478 1.34886 18.8712 1.37571C18.9848 1.53382 19.0088 1.66741 19.0094 1.86038C19.0099 1.92935 19.0099 1.92935 19.0103 1.99972C19.0103 2.05043 19.0103 2.10115 19.0102 2.15187C19.0104 2.20547 19.0107 2.25907 19.0109 2.31267C19.0116 2.4581 19.0117 2.60352 19.0118 2.74894C19.0118 2.83987 19.012 2.93079 19.0122 3.02171C19.0128 3.33911 19.0131 3.65651 19.013 3.97392C19.013 4.26945 19.0137 4.56498 19.0148 4.86052C19.0158 5.11452 19.0161 5.36851 19.0161 5.62251C19.0161 5.77409 19.0163 5.92567 19.017 6.07725C19.0177 6.21989 19.0177 6.36252 19.0172 6.50516C19.0171 6.55737 19.0173 6.60958 19.0177 6.66178C19.0203 6.99408 19.0103 7.22844 18.7826 7.48507C18.7565 7.50727 18.7303 7.52948 18.7034 7.55236C18.6773 7.57511 18.6513 7.59786 18.6244 7.6213C18.4771 7.72714 18.3497 7.75889 18.1696 7.75975C18.1105 7.76028 18.1105 7.76028 18.0503 7.76081C18.0074 7.76084 17.9645 7.76086 17.9204 7.76089C17.875 7.76118 17.8296 7.76147 17.7828 7.76177C17.6584 7.76254 17.534 7.76285 17.4097 7.76303C17.3318 7.76316 17.254 7.76338 17.1762 7.76363C16.9043 7.76449 16.6324 7.76495 16.3605 7.76507C16.1077 7.7652 15.8549 7.76625 15.6021 7.76772C15.3846 7.76895 15.1671 7.76949 14.9496 7.76951C14.8199 7.76954 14.6902 7.76984 14.5605 7.77085C14.4156 7.77195 14.2707 7.77162 14.1258 7.77118C14.0621 7.77197 14.0621 7.77197 13.997 7.77277C13.7029 7.77023 13.4594 7.71644 13.2375 7.51262C12.9701 7.22891 12.9727 6.93543 12.9735 6.56279C12.9733 6.50999 12.973 6.45718 12.9726 6.40437C12.9718 6.26142 12.9717 6.11847 12.9718 5.97551C12.9718 5.85592 12.9715 5.73632 12.9712 5.61673C12.9705 5.3344 12.9704 5.05208 12.9707 4.76975C12.9709 4.47913 12.9701 4.18851 12.9688 3.89789C12.9677 3.64783 12.9673 3.39777 12.9675 3.14771C12.9675 2.9986 12.9673 2.8495 12.9665 2.70039C12.9657 2.56006 12.9658 2.41975 12.9665 2.27941C12.9666 2.22814 12.9664 2.17686 12.9659 2.12559C12.9628 1.78914 12.9895 1.50586 13.2258 1.24959C13.4921 0.997399 13.7603 0.984605 14.1122 0.985909ZM15.5899 3.21496C15.5284 3.29871 15.5187 3.33958 15.5239 3.44347C15.5641 3.5582 15.5966 3.59926 15.6953 3.67199C15.8084 3.69324 15.9201 3.69169 16.0348 3.69067C16.0678 3.6908 16.1008 3.69093 16.1349 3.69107C16.2046 3.69117 16.2743 3.69091 16.3441 3.69032C16.4508 3.68957 16.5575 3.69032 16.6642 3.69121C16.732 3.69112 16.7998 3.69094 16.8676 3.69067C16.9154 3.69109 16.9154 3.69109 16.9642 3.69153C17.143 3.69024 17.143 3.69024 17.2964 3.60573C17.3587 3.51531 17.3828 3.46619 17.3828 3.35558C17.2963 3.19084 17.2963 3.19084 17.1367 3.10949C17.0351 3.10523 16.9343 3.10287 16.8327 3.10235C16.8028 3.10215 16.7729 3.10195 16.7422 3.10174C16.679 3.10141 16.6158 3.10118 16.5526 3.10104C16.4562 3.1007 16.3598 3.09961 16.2633 3.0985C16.2019 3.09827 16.1405 3.09809 16.079 3.09795C16.0359 3.0973 16.0359 3.0973 15.9919 3.09664C15.8284 3.09727 15.7232 3.10998 15.5899 3.21496ZM14.6406 5.25402C14.6143 5.361 14.6143 5.361 14.6406 5.46496C14.7063 5.54591 14.7586 5.59427 14.8516 5.64074C14.9232 5.6445 14.9949 5.64597 15.0665 5.6464C15.1117 5.64674 15.1569 5.64708 15.2034 5.64743C15.253 5.6476 15.3026 5.64775 15.3521 5.64788C15.4028 5.64808 15.4536 5.64828 15.5043 5.64849C15.6107 5.64886 15.7171 5.64906 15.8235 5.64918C15.9597 5.64938 16.0959 5.65022 16.2321 5.65122C16.3369 5.65188 16.4417 5.65206 16.5465 5.65211C16.5967 5.65222 16.6469 5.6525 16.6971 5.65296C16.7674 5.65357 16.8378 5.65343 16.9081 5.65327C16.9481 5.6534 16.9881 5.65353 17.0293 5.65366C17.1504 5.63909 17.2157 5.60859 17.3125 5.53527C17.3708 5.43652 17.3708 5.43652 17.3828 5.32433C17.336 5.22137 17.2867 5.15794 17.207 5.07824C17.1044 5.06668 17.1044 5.06668 16.9824 5.06747C16.9594 5.06717 16.9363 5.06688 16.9126 5.06658C16.8362 5.06573 16.7598 5.06542 16.6834 5.06519C16.6303 5.06488 16.5773 5.06456 16.5242 5.06423C16.4128 5.06365 16.3014 5.06338 16.19 5.06328C16.0474 5.06309 15.9049 5.06177 15.7623 5.06016C15.6526 5.05911 15.5429 5.05886 15.4332 5.05882C15.3807 5.05868 15.3281 5.05824 15.2756 5.0575C15.2019 5.05656 15.1284 5.05673 15.0547 5.05717C15.0128 5.05699 14.971 5.05681 14.9278 5.05663C14.7834 5.08464 14.7311 5.14036 14.6406 5.25402Z" fill="#ECF6FF"/>
<path d="M8.1113 13.3872C8.17946 13.3867 8.17946 13.3867 8.24899 13.3862C8.37262 13.3854 8.49623 13.3857 8.61987 13.3863C8.74986 13.3867 8.87985 13.3863 9.00984 13.386C9.22805 13.3857 9.44625 13.3861 9.66446 13.387C9.91597 13.3879 10.1675 13.3876 10.419 13.3867C10.6357 13.3859 10.8525 13.3858 11.0693 13.3862C11.1984 13.3865 11.3275 13.3865 11.4566 13.3859C11.6006 13.3853 11.7446 13.3862 11.8887 13.3872C11.9309 13.3868 11.9731 13.3864 12.0167 13.3861C12.2813 13.3894 12.4875 13.4316 12.707 13.5857C12.9822 13.868 13.0393 14.171 13.0376 14.5521C13.0379 14.5917 13.0381 14.6313 13.0384 14.6721C13.039 14.8024 13.0389 14.9327 13.0387 15.0631C13.0388 15.154 13.039 15.245 13.0392 15.336C13.0395 15.5265 13.0395 15.717 13.0391 15.9075C13.0387 16.1269 13.0392 16.3463 13.0401 16.5658C13.041 16.7778 13.0411 16.9898 13.0409 17.2018C13.0409 17.2916 13.0411 17.3813 13.0415 17.4711C13.042 17.5969 13.0417 17.7227 13.0411 17.8484C13.0416 17.9036 13.0416 17.9036 13.0421 17.9598C13.0392 18.2535 12.9666 18.4824 12.8081 18.7295C12.5332 18.9864 12.2538 19.0256 11.8887 19.0225C11.8432 19.0228 11.7978 19.0231 11.751 19.0234C11.6274 19.0242 11.5038 19.0239 11.3801 19.0234C11.2501 19.0229 11.1201 19.0233 10.9901 19.0236C10.7719 19.0239 10.5537 19.0235 10.3355 19.0227C10.084 19.0217 9.83252 19.022 9.58101 19.023C9.36424 19.0238 9.14747 19.0239 8.9307 19.0234C8.80159 19.0232 8.6725 19.0231 8.54339 19.0237C8.39935 19.0243 8.25535 19.0235 8.1113 19.0225C8.06907 19.0229 8.02684 19.0232 7.98332 19.0236C7.71868 19.0203 7.51247 18.978 7.29296 18.824C7.01776 18.5417 6.96071 18.2387 6.96235 17.8575C6.96211 17.8179 6.96187 17.7783 6.96162 17.7375C6.96098 17.6072 6.96111 17.4769 6.96131 17.3466C6.96115 17.2556 6.96096 17.1646 6.96075 17.0737C6.96044 16.8832 6.96051 16.6927 6.96087 16.5022C6.96128 16.2827 6.96078 16.0633 6.95984 15.8439C6.95896 15.6319 6.95888 15.4199 6.9591 15.2079C6.95911 15.1181 6.9589 15.0283 6.95846 14.9385C6.95794 14.8127 6.95831 14.687 6.95892 14.5612C6.95858 14.5245 6.95824 14.4877 6.95789 14.4498C6.96081 14.1562 7.03336 13.9273 7.19189 13.6802C7.46674 13.4232 7.74615 13.3841 8.1113 13.3872ZM8.6289 15.3787C8.61726 15.5052 8.61726 15.5052 8.66405 15.6247C8.75759 15.7192 8.81575 15.7614 8.94788 15.7832C9.00833 15.7834 9.00833 15.7834 9.07 15.7836C9.11587 15.784 9.16175 15.7845 9.20901 15.7849C9.2588 15.7847 9.3086 15.7844 9.35839 15.7841C9.40974 15.7841 9.46109 15.7843 9.51244 15.7845C9.61989 15.7847 9.72733 15.7844 9.83478 15.7837C9.97228 15.7829 10.1097 15.7834 10.2472 15.7842C10.3532 15.7847 10.4592 15.7846 10.5652 15.7842C10.6159 15.7841 10.6665 15.7842 10.7172 15.7845C10.7881 15.7849 10.8591 15.7843 10.93 15.7836C10.9904 15.7834 10.9904 15.7834 11.0521 15.7832C11.1842 15.7614 11.2424 15.7192 11.3359 15.6247C11.3827 15.5052 11.3827 15.5052 11.3711 15.3787C11.2819 15.2641 11.2285 15.2096 11.0846 15.1806C11.0223 15.1803 11.0223 15.1803 10.9587 15.1801C10.9356 15.1798 10.9126 15.1795 10.8888 15.1792C10.813 15.1784 10.7372 15.1789 10.6614 15.1795C10.6084 15.1794 10.5555 15.1792 10.5026 15.179C10.3918 15.1788 10.2811 15.1791 10.1703 15.18C10.0286 15.181 9.88686 15.1804 9.7451 15.1793C9.63586 15.1787 9.52663 15.1789 9.41738 15.1794C9.36513 15.1795 9.31288 15.1793 9.26063 15.1789C9.18748 15.1785 9.11443 15.1792 9.0413 15.1801C8.99975 15.1803 8.9582 15.1804 8.91539 15.1806C8.77148 15.2096 8.71804 15.2641 8.6289 15.3787ZM10.0351 16.7849C9.9808 16.8936 9.98967 16.9816 9.99999 17.1013C10.0773 17.2074 10.12 17.2384 10.2506 17.2607C10.4214 17.2625 10.4214 17.2625 10.5922 17.2622C10.6654 17.2617 10.7386 17.2629 10.8118 17.2643C10.8814 17.2642 10.8814 17.2642 10.9524 17.264C10.9947 17.2641 11.0371 17.2641 11.0808 17.2641C11.2276 17.2357 11.2808 17.1834 11.3711 17.0662C11.3711 16.9386 11.3638 16.858 11.2876 16.7541C11.1125 16.6329 10.8755 16.6715 10.6724 16.6706C10.6307 16.6699 10.5891 16.6692 10.5461 16.6684C10.506 16.6683 10.4658 16.6681 10.4243 16.6679C10.3876 16.6676 10.3509 16.6672 10.3131 16.6669C10.1957 16.6813 10.13 16.7152 10.0351 16.7849Z" fill="#ECF6FF"/>
<path d="M3.9993 0.984514C4.04078 0.984831 4.08226 0.985148 4.125 0.985475C4.96074 1.00199 5.68877 1.36281 6.26784 1.96394C6.85607 2.666 7.05985 3.47301 7.01175 4.37489C6.93418 5.13135 6.51791 5.86168 5.93614 6.34574C5.24818 6.887 4.42323 7.08801 3.55775 7.00394C2.95507 6.92194 2.40305 6.63572 1.94925 6.23818C1.91356 6.20752 1.91356 6.20752 1.87715 6.17624C1.35266 5.69169 1.01318 4.95859 0.984785 4.24787C0.983953 4.16936 0.983923 4.09085 0.984648 4.01235C0.984965 3.97087 0.985282 3.92938 0.985609 3.88665C1.00242 3.03606 1.37403 2.31411 1.98289 1.7254C2.54086 1.22592 3.25621 0.977648 3.9993 0.984514ZM2.65237 3.10927C2.61152 3.19342 2.61152 3.19342 2.61722 3.28505C2.67422 3.40762 2.71441 3.45531 2.82815 3.53114C2.93283 3.5426 2.93283 3.5426 3.05356 3.54192C3.07627 3.54221 3.09898 3.5425 3.12237 3.5428C3.19743 3.54365 3.27247 3.54396 3.34753 3.54419C3.39977 3.54451 3.45201 3.54483 3.50425 3.54515C3.61377 3.54573 3.72329 3.546 3.83282 3.5461C3.973 3.54629 4.11314 3.54762 4.2533 3.54922C4.36122 3.55027 4.46913 3.55052 4.57704 3.55056C4.62871 3.55071 4.68038 3.55114 4.73204 3.55188C4.80442 3.55283 4.87673 3.55266 4.94912 3.55222C4.99025 3.55239 5.03139 3.55257 5.07377 3.55276C5.21698 3.52458 5.26937 3.46779 5.3594 3.35536C5.3887 3.24989 5.3887 3.24989 5.3594 3.14443C5.26956 3.03242 5.21683 2.97535 5.07424 2.94656C5.03332 2.94653 4.9924 2.94649 4.95023 2.94646C4.92751 2.94621 4.9048 2.94595 4.88139 2.94569C4.80669 2.9451 4.73207 2.94578 4.65738 2.94653C4.60524 2.94651 4.5531 2.94642 4.50096 2.94628C4.39185 2.94618 4.28276 2.94669 4.17365 2.94766C4.03403 2.94886 3.89445 2.94865 3.75483 2.94799C3.64721 2.94761 3.53961 2.94793 3.43199 2.94846C3.38053 2.94864 3.32906 2.94862 3.27759 2.9484C3.20555 2.94821 3.13358 2.94893 3.06154 2.94989C3.00016 2.95022 3.00016 2.95022 2.93753 2.95055C2.80541 2.97241 2.74685 3.01605 2.65237 3.10927ZM2.70737 4.54641C2.642 4.63505 2.61991 4.68642 2.61722 4.79677C2.65949 4.89243 2.69419 4.95341 2.78161 5.01213C2.95333 5.07673 3.14811 5.05452 3.32989 5.05396C3.40567 5.05385 3.4814 5.05468 3.55717 5.05557C3.60562 5.05565 3.65407 5.05567 3.70253 5.05563C3.76829 5.05579 3.76829 5.05579 3.83539 5.05595C3.96293 5.04178 4.02766 5.01476 4.12894 4.93739C4.21138 4.83596 4.21138 4.83596 4.19485 4.70888C4.17515 4.58829 4.17515 4.58829 4.10923 4.52636C3.98981 4.46231 3.87777 4.46459 3.74551 4.46512C3.71873 4.46494 3.69195 4.46475 3.66436 4.46456C3.60787 4.46434 3.55137 4.46438 3.49487 4.46468C3.40851 4.46498 3.32223 4.46397 3.23588 4.46285C3.18091 4.4628 3.12593 4.46282 3.07095 4.46292C3.0452 4.46253 3.01946 4.46213 2.99293 4.46173C2.87109 4.46339 2.80513 4.47101 2.70737 4.54641Z" fill="#ECF6FF"/>
<path d="M16.7566 10.9715C16.9904 11.1588 17.1408 11.3969 17.207 11.6878C17.2464 12.1117 17.1861 12.4497 16.9173 12.7841C16.6648 13.045 16.3565 13.1667 15.9985 13.1798C15.6251 13.1685 15.3709 13.0499 15.1034 12.7905C14.8475 12.511 14.7634 12.2323 14.7727 11.8563C14.8023 11.5156 14.9476 11.2155 15.2081 10.9898C15.6927 10.6467 16.2638 10.6399 16.7566 10.9715Z" fill="#ECF6FF"/>
<path d="M4.7705 10.9688C4.98477 11.1429 5.161 11.4103 5.21133 11.6843C5.24639 12.031 5.22501 12.3509 5.01879 12.6431C4.77237 12.9421 4.51493 13.1307 4.12162 13.1772C3.76515 13.1903 3.45075 13.101 3.17199 12.8742C3.05799 12.7615 2.97579 12.6357 2.89843 12.4959C2.88642 12.4747 2.87441 12.4535 2.86204 12.4316C2.7431 12.1771 2.75361 11.8529 2.81727 11.585C2.9427 11.2454 3.14578 11.0177 3.46093 10.8435C3.48255 10.8315 3.50416 10.8195 3.52644 10.8071C3.93046 10.6211 4.41392 10.7331 4.7705 10.9688Z" fill="#ECF6FF"/>
<path d="M10.6086 7.93782C10.9038 8.12101 11.0945 8.36732 11.1953 8.69958C11.2711 9.05671 11.223 9.40317 11.0283 9.71472C10.8269 9.98839 10.5891 10.1382 10.2659 10.2377C9.83851 10.2794 9.49429 10.2051 9.15625 9.93005C8.88612 9.68458 8.78674 9.36986 8.76843 9.01187C8.77219 8.66522 8.91035 8.38373 9.14087 8.12829C9.53911 7.75749 10.1257 7.70357 10.6086 7.93782Z" fill="#ECF6FF"/>
<path d="M8.27731 9.6136C8.38349 9.71978 8.4464 9.80952 8.46628 9.95857C8.4484 10.1105 8.39181 10.1471 8.27731 10.2464C8.19471 10.2939 8.11525 10.3358 8.0293 10.3758C8.00517 10.3874 7.98104 10.399 7.95618 10.4109C7.87735 10.4487 7.79829 10.486 7.71921 10.5233C7.6643 10.5494 7.6094 10.5756 7.55452 10.6018C7.47 10.6422 7.38546 10.6825 7.30084 10.7227C7.10983 10.8135 6.91995 10.9063 6.73058 11.0005C6.65672 11.037 6.58284 11.0735 6.50897 11.11C6.46208 11.1333 6.41526 11.1566 6.3685 11.1802C6.30343 11.2128 6.23813 11.245 6.17274 11.2771C6.11766 11.3045 6.11766 11.3045 6.06147 11.3325C5.94746 11.375 5.86672 11.3835 5.74606 11.3714C5.64608 11.2936 5.57329 11.2116 5.53513 11.0902C5.53073 10.9693 5.53073 10.9693 5.57028 10.8441C5.73904 10.7044 5.95401 10.613 6.1505 10.5186C6.17837 10.5051 6.20625 10.4915 6.23497 10.4775C6.3246 10.434 6.41435 10.3907 6.50412 10.3475C6.56597 10.3176 6.62781 10.2877 6.68965 10.2578C6.78176 10.2133 6.87388 10.1688 6.96604 10.1244C7.13925 10.0409 7.31187 9.95636 7.48396 9.87054C7.5208 9.85236 7.55765 9.83417 7.5956 9.81542C7.66114 9.78305 7.7265 9.75033 7.79166 9.7172C7.95903 9.63532 8.08639 9.58748 8.27731 9.6136Z" fill="#ECF6FF"/>
<path d="M11.8322 9.60449C11.9826 9.61455 12.0897 9.65699 12.2212 9.72459C12.245 9.73633 12.2689 9.74808 12.2934 9.76019C12.3715 9.79877 12.4492 9.83802 12.5269 9.8773C12.5812 9.90434 12.6355 9.93133 12.6898 9.95828C12.7741 10.0001 12.8583 10.0419 12.9424 10.0839C13.1388 10.1819 13.3363 10.2773 13.5346 10.3713C13.5881 10.3967 13.6416 10.4222 13.695 10.4476C13.7719 10.4842 13.8488 10.5207 13.9258 10.5568C13.9969 10.5902 14.0678 10.6241 14.1386 10.658C14.1989 10.6866 14.1989 10.6866 14.2605 10.7157C14.3596 10.7739 14.41 10.8141 14.4649 10.9144C14.4588 11.0826 14.424 11.2006 14.3242 11.3363C14.226 11.3854 14.1521 11.3782 14.043 11.3714C13.9536 11.34 13.9536 11.34 13.8639 11.2952C13.83 11.2785 13.796 11.2618 13.7611 11.2446C13.7248 11.2263 13.6885 11.208 13.6512 11.1891C13.6131 11.1702 13.575 11.1514 13.5358 11.132C13.4139 11.0716 13.2923 11.0106 13.1707 10.9496C13.0507 10.8898 12.9307 10.8302 12.8107 10.7706C12.7327 10.7319 12.6548 10.6931 12.577 10.6542C12.4066 10.5691 12.2361 10.4852 12.0629 10.4062C12.0351 10.3934 12.0073 10.3807 11.9786 10.3676C11.9283 10.3448 11.8779 10.3224 11.8273 10.3004C11.7001 10.243 11.6154 10.1945 11.5469 10.0707C11.525 9.92699 11.5409 9.87004 11.615 9.74326C11.7139 9.61435 11.7139 9.61435 11.8322 9.60449Z" fill="#ECF6FF"/>
<path d="M4.00807 7.55488C4.03422 7.55484 4.06036 7.55479 4.08731 7.55474C4.19538 7.58278 4.23517 7.62845 4.3047 7.71528C4.32255 7.81933 4.32255 7.81933 4.32289 7.94201C4.32334 7.988 4.32378 8.03399 4.32424 8.08137C4.32399 8.13146 4.3237 8.18155 4.32337 8.23164C4.32347 8.28312 4.32361 8.33461 4.32378 8.38609C4.32399 8.4939 4.32369 8.6017 4.32303 8.70951C4.32223 8.8476 4.32269 8.98565 4.32353 9.12374C4.32404 9.23002 4.32388 9.3363 4.32352 9.44259C4.32342 9.49349 4.32354 9.5444 4.32386 9.59531C4.32422 9.66649 4.32358 9.73768 4.32289 9.80886C4.32273 9.86959 4.32273 9.86959 4.32255 9.93154C4.30093 10.0575 4.26384 10.0988 4.16407 10.1762C4.08731 10.1961 4.08731 10.1961 4.00807 10.196C3.98201 10.1968 3.95595 10.1975 3.9291 10.1983C3.80582 10.1649 3.75301 10.0972 3.67189 10.0004C3.64956 9.89506 3.64956 9.89506 3.64914 9.77673C3.64831 9.71003 3.64831 9.71003 3.64746 9.64198C3.64778 9.59374 3.64814 9.5455 3.64854 9.49726C3.64842 9.44749 3.64825 9.39772 3.64803 9.34794C3.64777 9.2438 3.64815 9.13967 3.64897 9.03553C3.64997 8.90228 3.64939 8.7691 3.64834 8.63586C3.6477 8.53313 3.64791 8.43041 3.64836 8.32768C3.64848 8.27857 3.64834 8.22945 3.64793 8.18034C3.64748 8.11161 3.64828 8.04287 3.64914 7.97415C3.64928 7.9351 3.64942 7.89605 3.64956 7.85581C3.68891 7.67005 3.81531 7.54918 4.00807 7.55488Z" fill="#ECF6FF"/>
<path d="M10 10.7911C10.0298 10.7908 10.0595 10.7904 10.0901 10.79C10.2123 10.8167 10.2436 10.8459 10.3164 10.9493C10.3377 11.0807 10.3353 11.2111 10.3339 11.3439C10.3339 11.3825 10.334 11.421 10.334 11.4608C10.334 11.5422 10.3336 11.6237 10.3328 11.7052C10.3318 11.8301 10.3321 11.955 10.3326 12.0799C10.3323 12.159 10.3321 12.2382 10.3317 12.3173C10.3318 12.3547 10.3319 12.3922 10.332 12.4308C10.3313 12.4829 10.3313 12.4829 10.3306 12.536C10.3304 12.5666 10.3303 12.5972 10.3301 12.6287C10.3135 12.7241 10.2882 12.7555 10.211 12.8126C10.1121 12.8266 10.1121 12.8266 10 12.8258C9.96304 12.8261 9.92606 12.8263 9.88796 12.8266C9.77487 12.8106 9.75117 12.7962 9.68362 12.7072C9.66999 12.6287 9.66999 12.6287 9.66941 12.536C9.66896 12.5013 9.66852 12.4666 9.66806 12.4308C9.66816 12.3933 9.66827 12.3559 9.66837 12.3173C9.66819 12.2787 9.668 12.2402 9.66781 12.2005C9.66759 12.119 9.66764 12.0374 9.66793 11.9559C9.66823 11.831 9.66722 11.7062 9.66611 11.5814C9.66605 11.5022 9.66607 11.4231 9.66617 11.3439C9.66578 11.3065 9.66538 11.2691 9.66498 11.2306C9.66742 10.9723 9.66742 10.9723 9.74966 10.8555C9.83958 10.7991 9.89423 10.7898 10 10.7911Z" fill="#ECF6FF"/>
<path d="M15.9941 8.33623C16.0447 8.33643 16.0447 8.33643 16.0963 8.33664C16.1875 8.34722 16.1875 8.34722 16.2929 8.41753C16.3245 8.51222 16.3332 8.57022 16.3349 8.66772C16.3357 8.7112 16.3357 8.7112 16.3366 8.75556C16.3382 8.88776 16.3396 9.01995 16.3404 9.15215C16.341 9.22185 16.342 9.29155 16.3433 9.36124C16.3452 9.46187 16.346 9.56245 16.3465 9.6631C16.3473 9.69416 16.3481 9.72522 16.3489 9.75722C16.3484 9.9149 16.3442 9.9789 16.2441 10.1071C16.1487 10.178 16.1088 10.1986 15.9919 10.1951C15.9658 10.1952 15.9396 10.1952 15.9127 10.1953C15.7994 10.1659 15.7649 10.1301 15.6953 10.0347C15.6742 9.91613 15.6764 9.79879 15.6778 9.67862C15.6778 9.64396 15.6777 9.60929 15.6777 9.57357C15.6778 9.50038 15.6782 9.42718 15.6789 9.35398C15.6799 9.24179 15.6796 9.12965 15.6792 9.01745C15.6794 8.94634 15.6797 8.87522 15.68 8.80411C15.6799 8.77049 15.6798 8.73687 15.6797 8.70223C15.6802 8.67102 15.6806 8.63981 15.6811 8.60765C15.6813 8.58021 15.6815 8.55276 15.6817 8.52448C15.7153 8.3475 15.834 8.33343 15.9941 8.33623Z" fill="#ECF6FF"/>
</g>
<defs>
<clipPath id="clip0_62_7453">
<rect width="18" height="18" fill="white" transform="translate(1 1)"/>
</clipPath>
</defs>
</svg>
