<svg width="17" height="19" viewBox="0 0 17 19" fill="none" xmlns="http://www.w3.org/2000/svg">
<path d="M4.07454 0.00763385C4.13933 0.00742312 4.20411 0.00718379 4.26889 0.00691824C4.44396 0.00630011 4.61903 0.00613242 4.7941 0.00608744C4.90382 0.00603727 5.01353 0.00588679 5.12325 0.00570091C5.50697 0.0050513 5.89069 0.00476316 6.27442 0.0048186C6.6305 0.00486077 6.98658 0.00412014 7.34266 0.0030085C7.64963 0.00208478 7.9566 0.00171211 8.26358 0.00175687C8.44636 0.00177468 8.62912 0.00158093 8.8119 0.000830291C8.98412 0.000142257 9.15633 0.000148959 9.32855 0.000655679C9.3912 0.000728326 9.45384 0.000568473 9.51649 0.000138147C10.065 -0.00338072 10.6157 0.0594596 11.1207 0.288111C11.1481 0.300152 11.1755 0.312193 11.2038 0.324598C12.1831 0.768267 12.9246 1.57721 13.3137 2.57524C13.4344 2.91182 13.5225 3.27535 13.5221 3.63355C13.5222 3.69389 13.5222 3.69389 13.5223 3.75544C13.5222 3.79906 13.522 3.84268 13.5219 3.88763C13.5219 3.93395 13.5219 3.98027 13.5219 4.028C13.5219 4.15459 13.5217 4.28118 13.5215 4.40777C13.5213 4.54022 13.5212 4.67268 13.5212 4.80513C13.5211 5.05576 13.5208 5.30639 13.5204 5.55702C13.52 5.84244 13.5199 6.12785 13.5197 6.41327C13.5193 7.00021 13.5187 7.58716 13.5179 8.1741C13.5414 8.18084 13.5649 8.18759 13.5891 8.19454C13.6358 8.20821 13.6358 8.20821 13.6835 8.22215C13.7142 8.23108 13.745 8.24 13.7766 8.24919C13.9242 8.29746 14.0583 8.36655 14.1947 8.43997C14.2235 8.4554 14.2524 8.47084 14.2821 8.48674C14.7354 8.73436 15.1206 9.04166 15.4867 9.40457C15.517 9.43443 15.5473 9.4643 15.5785 9.49507C16.4691 10.4226 16.9103 11.6756 16.9039 12.9466C16.9038 12.9862 16.9038 12.9862 16.9037 13.0265C16.9021 13.4115 16.8861 13.7766 16.7874 14.1507C16.7766 14.1972 16.7657 14.2438 16.7549 14.2903C16.5325 15.1834 16.027 15.9674 15.3812 16.6116C15.3514 16.6418 15.3216 16.672 15.291 16.7031C14.3704 17.5885 13.1135 18.0256 11.8524 18.0266C11.8255 18.0267 11.7986 18.0267 11.7708 18.0267C11.3824 18.0262 11.0122 18.0149 10.6351 17.9124C10.6115 17.906 10.5879 17.8996 10.5636 17.893C9.4039 17.5708 9.4039 17.5708 9.04212 17.1952C8.62827 16.8086 8.0812 16.8818 7.55146 16.8899C7.40894 16.8916 7.26642 16.8913 7.12388 16.8911C6.85395 16.891 6.58406 16.8926 6.31414 16.895C5.83191 16.8991 5.34966 16.9007 4.8674 16.9012C4.69872 16.9015 4.53008 16.9026 4.36141 16.9043C3.24387 16.9152 2.25428 16.7293 1.389 15.9788C1.36059 15.9554 1.33218 15.9321 1.3029 15.9081C0.585281 15.2986 0.145177 14.4096 0.0179112 13.4827C0.00872192 13.3413 0.00809873 13.2006 0.00850947 13.059C0.00835017 13.018 0.0081908 12.9771 0.00802667 12.935C0.00766106 12.8225 0.00760564 12.71 0.00768898 12.5975C0.00770343 12.4758 0.00731421 12.354 0.00698169 12.2323C0.00639968 11.9942 0.00620451 11.756 0.00616522 11.5178C0.00613171 11.324 0.0059868 11.1302 0.0057645 10.9364C0.00514577 10.3857 0.00482066 9.83493 0.00487347 9.2842C0.00487768 9.23974 0.00487775 9.23974 0.00488205 9.19438C0.00488493 9.16471 0.00488767 9.13503 0.00489064 9.10446C0.00491918 8.62411 0.00424707 8.14377 0.00325502 7.66342C0.00224206 7.169 0.00175973 6.67459 0.00182031 6.18017C0.00184355 5.90307 0.00165467 5.62599 0.000893608 5.3489C0.000249423 5.11286 0.000103741 4.87683 0.000577912 4.6408C0.000805543 4.52066 0.000740502 4.40055 0.000201598 4.28041C-0.00249529 3.63711 0.0182303 3.01129 0.288175 2.41506C0.306236 2.37393 0.306236 2.37393 0.324661 2.33196C0.756923 1.37788 1.5416 0.631352 2.51766 0.253625C3.03813 0.059671 3.52375 0.00727459 4.07454 0.00763385ZM3.25229 5.85598C3.1318 6.03295 3.1237 6.16945 3.14682 6.38113C3.22936 6.55257 3.33271 6.6414 3.49838 6.73269C3.64209 6.77097 3.77981 6.77244 3.92807 6.77279C3.95327 6.77289 3.97846 6.77299 4.00442 6.7731C4.08864 6.77341 4.17286 6.77346 4.25709 6.77351C4.31756 6.77368 4.37803 6.77385 4.43851 6.77404C4.60267 6.7745 4.76684 6.77473 4.931 6.77489C5.03363 6.77499 5.13626 6.77513 5.23889 6.77529C5.5602 6.77577 5.88151 6.77611 6.20281 6.77625C6.57335 6.7764 6.94388 6.77702 7.31442 6.77804C7.60108 6.7788 7.88774 6.77915 8.1744 6.7792C8.34549 6.77924 8.51659 6.77944 8.68768 6.78007C8.8487 6.78065 9.00971 6.78073 9.17073 6.78042C9.22967 6.78039 9.28861 6.78055 9.34755 6.78089C9.82085 6.80206 9.82086 6.80206 10.2344 6.61133C10.3784 6.44555 10.4015 6.33178 10.3988 6.11883C10.3843 5.98651 10.3369 5.91644 10.2484 5.81863C10.0377 5.65277 9.87013 5.63852 9.60775 5.63791C9.58256 5.63781 9.55736 5.6377 9.5314 5.63759C9.44718 5.63729 9.36296 5.63724 9.27873 5.63718C9.21826 5.63702 9.15779 5.63684 9.09732 5.63665C8.93315 5.63619 8.76899 5.63597 8.60482 5.63581C8.50219 5.63571 8.39956 5.63556 8.29693 5.63541C7.97562 5.63492 7.65431 5.63459 7.33301 5.63445C6.96247 5.63429 6.59194 5.63367 6.2214 5.63266C5.93474 5.6319 5.64808 5.63154 5.36142 5.63149C5.19033 5.63146 5.01924 5.63125 4.84814 5.63062C4.68712 5.63004 4.52611 5.62997 4.36509 5.63028C4.30615 5.6303 4.24721 5.63015 4.18827 5.6298C3.6747 5.60858 3.6747 5.60858 3.25229 5.85598ZM3.25229 8.10598C3.1318 8.28295 3.1237 8.41945 3.14682 8.63113C3.22936 8.80257 3.33271 8.8914 3.49838 8.98269C3.6252 9.0151 3.74409 9.02239 3.87469 9.02278C3.9147 9.02299 3.95471 9.02319 3.99594 9.02339C4.06131 9.02345 4.06131 9.02345 4.128 9.02351C4.19723 9.02377 4.19723 9.02377 4.26785 9.02404C4.39425 9.0245 4.52064 9.02473 4.64704 9.02489C4.72611 9.02499 4.80519 9.02513 4.88426 9.02529C5.13199 9.02577 5.37971 9.02611 5.62743 9.02625C5.91281 9.0264 6.19818 9.02702 6.48355 9.02804C6.70452 9.0288 6.9255 9.02915 7.14648 9.0292C7.27827 9.02924 7.41007 9.02944 7.54186 9.03007C7.68904 9.03076 7.8362 9.03061 7.98338 9.03038C8.02667 9.0307 8.06997 9.03103 8.11457 9.03136C8.49745 9.03209 8.49745 9.0321 8.82861 8.86133C8.97172 8.69487 8.99527 8.58195 8.99251 8.36883C8.97805 8.23651 8.93062 8.16644 8.84213 8.06863C8.64957 7.91704 8.49483 7.88863 8.25489 7.88791C8.21487 7.88771 8.17486 7.88751 8.13363 7.8873C8.06826 7.88724 8.06826 7.88724 8.00157 7.88718C7.93235 7.88692 7.93235 7.88692 7.86172 7.88665C7.73532 7.88619 7.60893 7.88597 7.48253 7.88581C7.40346 7.88571 7.32438 7.88556 7.24531 7.88541C6.99759 7.88492 6.74986 7.88459 6.50214 7.88445C6.21676 7.88429 5.9314 7.88368 5.64602 7.88266C5.42505 7.88189 5.20407 7.88154 4.9831 7.88149C4.8513 7.88146 4.71951 7.88125 4.58771 7.88062C4.44053 7.87993 4.29337 7.88009 4.1462 7.88032C4.1029 7.87999 4.05961 7.87967 4.015 7.87933C3.59161 7.88111 3.59161 7.88111 3.25229 8.10598ZM8.9476 10.2835C8.11365 11.1914 7.87814 12.2455 7.92807 13.4475C7.94373 13.6287 7.98222 13.8004 8.03354 13.9749C8.0455 14.0178 8.05746 14.0607 8.06979 14.1049C8.37513 15.1086 9.08665 15.9344 10.0023 16.4358C10.9187 16.9175 11.9775 17.0133 12.9699 16.7251C13.9871 16.4056 14.8094 15.7003 15.3186 14.7685C15.7476 13.9077 15.9025 12.8713 15.6273 11.9358C15.6153 11.8929 15.6034 11.85 15.591 11.8058C15.2857 10.8021 14.5742 9.97627 13.6585 9.47488C12.0557 8.63238 10.1943 9.02254 8.9476 10.2835ZM3.25229 10.356C3.1318 10.5329 3.1237 10.6695 3.14682 10.8811C3.22936 11.0526 3.33271 11.1414 3.49838 11.2327C3.65305 11.2751 3.808 11.2733 3.9672 11.2735C4.01079 11.2738 4.01079 11.2738 4.05527 11.274C4.15112 11.2746 4.24697 11.2748 4.34282 11.275C4.40968 11.2752 4.47654 11.2754 4.5434 11.2756C4.68351 11.276 4.82362 11.2762 4.96372 11.2763C5.14282 11.2765 5.3219 11.2773 5.50098 11.2783C5.63909 11.279 5.77719 11.2792 5.9153 11.2792C5.9813 11.2793 6.04731 11.2796 6.11331 11.2801C6.20585 11.2807 6.29837 11.2806 6.39092 11.2804C6.4179 11.2807 6.44489 11.281 6.47269 11.2814C6.68541 11.2797 6.87575 11.2379 7.05122 11.1094C7.18658 10.9506 7.2415 10.8105 7.22494 10.5999C7.16756 10.4341 7.07909 10.3239 6.94369 10.2132C6.75732 10.1464 6.59212 10.1326 6.39714 10.1332C6.35361 10.1329 6.35361 10.1329 6.30921 10.1326C6.21391 10.1322 6.11862 10.1322 6.02331 10.1323C5.95664 10.1321 5.88996 10.132 5.82328 10.1318C5.68374 10.1316 5.5442 10.1316 5.40466 10.1317C5.22644 10.132 5.04824 10.1314 4.87002 10.1305C4.73236 10.13 4.59471 10.13 4.45705 10.1301C4.39138 10.1301 4.3257 10.1299 4.26002 10.1295C4.16791 10.1291 4.07583 10.1294 3.98372 10.1298C3.95697 10.1295 3.93022 10.1292 3.90267 10.1289C3.66484 10.1312 3.41307 10.1665 3.25229 10.356Z" fill="#ECF6FF"/>
</svg>
